Coordinates
version=1
nRows=9
nColumns=24
inDegrees=yes

Units are S.I. units (second, meters, Newtons, ...)
Angles are in degrees.

endheader
time	pelvis_tilt	pelvis_list	pelvis_rotation	pelvis_tx	pelvis_ty	pelvis_tz	hip_flexion_r	hip_adduction_r	hip_rotation_r	knee_angle_r	ankle_angle_r	subtalar_angle_r	mtp_angle_r	hip_flexion_l	hip_adduction_l	hip_rotation_l	knee_angle_l	ankle_angle_l	subtalar_angle_l	mtp_angle_l	lumbar_extension	lumbar_bending	lumbar_rotation
      1.88000000	     -6.92608430	     -3.42083649	      2.52384985	      0.09279932	      1.23695904	     -0.81995432	     12.76682638	     10.32025758	      5.92910439	    -10.42929297	      1.67050308	     -4.64642670	      3.93614047	     30.92312194	      2.76543400	     -0.25103665	    -64.01175789	     -8.68594790	     -1.56141126	     23.22439331	     -6.09597062	      4.64315417	      5.41774733
      1.88500000	     -7.00224582	     -3.27036865	      2.38107399	      0.09804309	      1.23743052	     -0.81955816	     12.26579000	     10.20137878	      5.96263629	    -10.14924945	      1.92469316	     -4.34816605	      3.99667910	     31.51404010	      2.97077259	     -0.40328288	    -63.18106961	     -7.92102969	     -1.53318864	     22.91023321	     -6.07408158	      4.42387705	      5.62058429
      1.89000000	     -7.08612738	     -3.12453111	      2.24834340	      0.10329987	      1.23786518	     -0.81918614	     11.78023659	     10.08221403	      5.98914969	     -9.88125029	      2.16385276	     -4.07265795	      4.05034452	     32.08151060	      3.16935397	     -0.54392406	    -62.24772646	     -7.17510221	     -1.54431718	     22.57674698	     -6.03778762	      4.21517271	      5.80206469
      1.89500000	     -7.17211607	     -2.99464047	      2.11194346	      0.10854070	      1.23824861	     -0.81884222	     11.30572121	      9.98165629	      6.04996008	     -9.62564684	      2.38661578	     -3.90315339	      4.07610885	     32.62532347	      3.34922395	     -0.67035283	    -61.22165652	     -6.46301737	     -1.67873729	     22.37498091	     -6.00065419	      4.02702046	      6.03327502
      1.90000000	     -7.23392504	     -2.86421073	      1.99411163	      0.11382154	      1.23863088	     -0.81851349	     10.80573042	      9.87544177	      6.08810848	     -9.37842695	      2.62396015	     -3.68274847	      4.11513132	     33.09691163	      3.53298741	     -0.76105176	    -60.08524725	     -5.75612854	     -1.75800999	     22.09931075	     -5.97253502	      3.82878474	      6.24575373
      1.90500000	     -7.29400013	     -2.73027504	      1.91111424	      0.11910480	      1.23900181	     -0.81831313	     10.30764367	      9.74341834	      6.06492822	     -9.13484495	      2.86755411	     -3.37480872	      4.17364061	     33.53359359	      3.75873812	     -0.78041465	    -58.85626567	     -5.08533410	     -1.76848405	     21.61233246	     -5.94973069	      3.65231179	      6.42929331
      1.91000000	     -7.36487170	     -2.62709964	      1.83711201	      0.12440199	      1.23928053	     -0.81812060	      9.83693679	      9.65030358	      6.05506717	     -8.92025522	      3.10537539	     -3.17825603	      4.20371423	     33.96244821	      3.94892043	     -0.77626430	    -57.56352172	     -4.41466873	     -1.90744627	     21.17324594	     -5.91039814	      3.50090790	      6.58626883
      1.91500000	     -7.45593084	     -2.52969649	      1.75151000	      0.12968226	      1.23948798	     -0.81793127	      9.40751268	      9.56980892	      6.13188348	     -8.74025176	      3.29781009	     -3.12327506	      4.20624869	     34.38440793	      4.12521520	     -0.75065818	    -56.18379195	     -3.77262726	     -2.13343337	     21.00951795	     -5.85265506	      3.36267605	      6.75408676
      1.92000000	     -7.46457750	     -2.41847906	      1.69156341	      0.13504148	      1.23977256	     -0.81779574	      8.85581288	      9.46485027	      6.13263220	     -8.51243564	      3.53414128	     -2.98816981	      4.22352309	     34.65612263	      4.31184657	     -0.71685358	    -54.69262105	     -3.18794525	     -2.33215754	     20.66211603	     -5.86502790	      3.20908876	      6.94301355
